<?xml version="1.0" encoding="UTF-8"?>
<svg width="16px" height="16px" viewBox="0 0 16 16" version="1.1" xmlns="http://www.w3.org/2000/svg" xmlns:xlink="http://www.w3.org/1999/xlink">
    <title>切片</title>
    <g id="页面-1" stroke="none" stroke-width="1" fill="none" fill-rule="evenodd" fill-opacity="0.3">
        <g id="07-输入和选择器" transform="translate(-361.000000, -258.000000)" fill="#242E3E">
            <g id="*Input/30)-Basic备份-2" transform="translate(187.000000, 249.000000)">
                <g id="➡️-右侧内容" transform="translate(159.333333, 0.000000)">
                    <g id="Icon" transform="translate(14.666667, 9.000000)">
                        <path d="M8,1 C11.8659932,1 15,4.13400675 15,8 C15,11.8659932 11.8659932,15 8,15 C4.13400675,15 1,11.8659932 1,8 C1,4.13400675 4.13400675,1 8,1 Z M6.10612261,5.28205831 C5.98408377,5.16001947 5.78621972,5.16001947 5.66418087,5.28205831 L5.66418087,5.28205831 L5.26643331,5.67980587 C5.14439447,5.80184472 5.14439447,5.99970877 5.26643331,6.12174761 L5.26643331,6.12174761 L7.14390418,7.99952918 L5.26643331,9.87825239 C5.14439447,10.0002912 5.14439447,10.1981553 5.26643331,10.3201941 L5.26643331,10.3201941 L5.66418087,10.7179417 C5.78621972,10.8399805 5.98408377,10.8399805 6.10612261,10.7179417 L6.10612261,10.7179417 L7.98390418,8.83952918 L9.86262739,10.7179417 C9.98466623,10.8399805 10.1825303,10.8399805 10.3045691,10.7179417 L10.3045691,10.7179417 L10.7023167,10.3201941 C10.8243555,10.1981553 10.8243555,10.0002912 10.7023167,9.87825239 L10.7023167,9.87825239 L8.82390418,7.99952918 L10.7023167,6.12174761 C10.8243555,5.99970877 10.8243555,5.80184472 10.7023167,5.67980587 L10.7023167,5.67980587 L10.3045691,5.28205831 C10.1825303,5.16001947 9.98466623,5.16001947 9.86262739,5.28205831 L9.86262739,5.28205831 L7.98390418,7.15952918 Z" id="形状结合"></path>
                    </g>
                </g>
            </g>
        </g>
    </g>
</svg>