<?xml version="1.0" encoding="UTF-8"?>
<svg width="24px" height="24px" viewBox="0 0 24 24" version="1.1" xmlns="http://www.w3.org/2000/svg" xmlns:xlink="http://www.w3.org/1999/xlink">
    <title>切片</title>
    <g id="页面-1" stroke="none" stroke-width="1" fill="none" fill-rule="evenodd">
        <g id="Badge-徽标" transform="translate(-536.000000, -119.000000)" fill="#000000">
            <g id="编组" transform="translate(536.000000, 119.000000)">
                <path d="M10.0753796,12.7459497 C10.7381213,12.7459497 11.2753796,13.283208 11.2753796,13.9459497 L11.2753796,20.5459497 C11.2753796,21.2086914 10.7381213,21.7459497 10.0753796,21.7459497 L3.47537964,21.7459497 C2.81263794,21.7459497 2.27537964,21.2086914 2.27537964,20.5459497 L2.27537964,13.9459497 C2.27537964,13.283208 2.81263794,12.7459497 3.47537964,12.7459497 L10.0753796,12.7459497 Z M20.5522899,12.7416848 C21.2150316,12.7416848 21.7522899,13.2789431 21.7522899,13.9416848 L21.7522899,20.5416848 C21.7522899,21.2044265 21.2150316,21.7416848 20.5522899,21.7416848 L13.9522899,21.7416848 C13.2895482,21.7416848 12.7522899,21.2044265 12.7522899,20.5416848 L12.7522899,13.9416848 C12.7522899,13.2789431 13.2895482,12.7416848 13.9522899,12.7416848 L20.5522899,12.7416848 Z M9.27461254,14.7456872 L4.27461254,14.7456872 L4.27461254,19.7456872 L9.27461254,19.7456872 L9.27461254,14.7456872 Z M19.7516125,14.7406872 L14.7516125,14.7406872 L14.7516125,19.7406872 L19.7516125,19.7406872 L19.7516125,14.7406872 Z M10.05,2.26803149 C10.7127417,2.26803149 11.25,2.80528979 11.25,3.46803149 L11.25,10.0680315 C11.25,10.7307732 10.7127417,11.2680315 10.05,11.2680315 L3.45,11.2680315 C2.7872583,11.2680315 2.25,10.7307732 2.25,10.0680315 L2.25,3.46803149 C2.25,2.80528979 2.7872583,2.26803149 3.45,2.26803149 L10.05,2.26803149 Z M20.5799821,2.25 C21.2427238,2.25 21.7799821,2.7872583 21.7799821,3.45 L21.7799821,10.05 C21.7799821,10.7127417 21.2427238,11.25 20.5799821,11.25 L13.9799821,11.25 C13.3172404,11.25 12.7799821,10.7127417 12.7799821,10.05 L12.7799821,3.45 C12.7799821,2.7872583 13.3172404,2.25 13.9799821,2.25 L20.5799821,2.25 Z M9.24961254,4.26768722 L4.24961254,4.26768722 L4.24961254,9.26768722 L9.24961254,9.26768722 L9.24961254,4.26768722 Z M19.7796125,4.24968722 L14.7796125,4.24968722 L14.7796125,9.24968722 L19.7796125,9.24968722 L19.7796125,4.24968722 Z" id="形状结合"></path>
            </g>
        </g>
    </g>
</svg>