<?xml version="1.0" encoding="UTF-8"?>
<svg width="24px" height="24px" viewBox="0 0 24 24" version="1.1" xmlns="http://www.w3.org/2000/svg" xmlns:xlink="http://www.w3.org/1999/xlink">
    <title>切片</title>
    <g id="页面-1" stroke="none" stroke-width="1" fill="none" fill-rule="evenodd">
        <g id="Badge-徽标" transform="translate(-609.000000, -116.000000)" fill="#000000">
            <g id="编组" transform="translate(609.000000, 116.000000)">
                <path d="M12,1.5 C17.7989899,1.5 22.5,6.20101013 22.5,12 C22.5,17.7989899 17.7989899,22.5 12,22.5 L3,22.5 C2.17157288,22.5 1.5,21.8284271 1.5,21 L1.5,12 C1.5,6.20101013 6.20101013,1.5 12,1.5 Z M12,3.5 C7.39093272,3.5 3.63867855,7.16845296 3.5037566,11.7448397 L3.5,12 L3.5,20.5 L12,20.5 C16.6090673,20.5 20.3613215,16.831547 20.4962434,12.2551603 L20.5,12 C20.5,7.30557963 16.6944204,3.5 12,3.5 Z M9.7093507,11.0011931 C9.98549308,11.0011931 10.2093507,11.2250507 10.2093507,11.5011931 L10.2093507,13.0011931 C10.2093507,13.2773355 9.98549308,13.5011931 9.7093507,13.5011931 L8.2093507,13.5011931 C7.93320833,13.5011931 7.7093507,13.2773355 7.7093507,13.0011931 L7.7093507,11.5011931 C7.7093507,11.2250507 7.93320833,11.0011931 8.2093507,11.0011931 L9.7093507,11.0011931 Z M15.7093507,11.0011931 C15.9854931,11.0011931 16.2093507,11.2250507 16.2093507,11.5011931 L16.2093507,13.0011931 C16.2093507,13.2773355 15.9854931,13.5011931 15.7093507,13.5011931 L14.2093507,13.5011931 C13.9332083,13.5011931 13.7093507,13.2773355 13.7093507,13.0011931 L13.7093507,11.5011931 C13.7093507,11.2250507 13.9332083,11.0011931 14.2093507,11.0011931 L15.7093507,11.0011931 Z" id="形状结合"></path>
            </g>
        </g>
    </g>
</svg>