<?xml version="1.0" encoding="UTF-8"?>
<svg width="20px" height="20px" viewBox="0 0 20 20" version="1.1" xmlns="http://www.w3.org/2000/svg" xmlns:xlink="http://www.w3.org/1999/xlink">
    <title>提取文字-定制</title>
    <g id="1.主界面｜图片查看器｜浏览器" stroke="none" stroke-width="1" >
        <g id="图片查看器-图片加载异常" transform="translate(-562, -132)">
            <g id="编组备份-2" transform="translate(113, 122)">
                <g id="Icon3备份-8" transform="translate(449, 10)">
                    <path fill="currentColor" d="M2.12239583,13.5807292 C2.51791226,13.5807292 2.83854167,13.9013586 2.83854167,14.296875 L2.83854167,16.3498264 L2.84327107,16.4383956 C2.88702735,16.8455788 3.22899617,17.1614583 3.64289848,17.1614583 L5.68675595,17.1614583 L5.77027369,17.1662764 C6.12644071,17.2076446 6.40290179,17.5103389 6.40290179,17.8776042 C6.40290179,18.2731206 6.08227237,18.59375 5.68675595,18.59375 L3.64289848,18.59375 L3.51590404,18.5901952 C2.3390463,18.5241347 1.40625,17.5456403 1.40625,16.3498264 L1.40625,14.296875 L1.41106804,14.2133573 C1.45243628,13.8571902 1.75513058,13.5807292 2.12239583,13.5807292 Z M17.8776042,13.5807292 C18.2448694,13.5807292 18.5475637,13.8571902 18.588932,14.2133573 L18.59375,14.296875 L18.59375,16.3498264 C18.59375,17.5456403 17.6609537,18.5241347 16.484096,18.5901952 L16.3571015,18.59375 L14.313244,18.59375 C13.9177276,18.59375 13.5970982,18.2731206 13.5970982,17.8776042 C13.5970982,17.5103389 13.8735593,17.2076446 14.2297263,17.1662764 L14.313244,17.1614583 L16.3571015,17.1614583 C16.7710038,17.1614583 17.1129727,16.8455788 17.1567289,16.4383956 L17.1614583,16.3498264 L17.1614583,14.296875 C17.1614583,13.9013586 17.4820877,13.5807292 17.8776042,13.5807292 Z M10.4354077,4.52433895 C10.5088625,4.52388309 10.5727166,4.57465442 10.5888244,4.64632288 C10.6401564,4.86685454 10.680936,5.05437648 10.7108479,5.20895954 C10.7494106,5.40824923 10.7893103,5.63160386 10.8305469,5.87902344 L14.5238672,5.87902344 C14.6101617,5.87902344 14.6801172,5.94897895 14.6801172,6.03527344 L14.6801172,7.08875 C14.6801172,7.17504449 14.6101617,7.245 14.5238672,7.245 L13.1673828,7.245 C12.9416016,8.08039063 12.659375,8.82923177 12.3207031,9.49152344 C11.9820313,10.1538151 11.571862,10.7521354 11.0901953,11.2864844 C11.9336712,11.9033548 13.0245855,12.4412556 14.3629381,12.9001866 C14.4972618,12.9462472 14.6888768,13.0082406 14.937783,13.0861667 C15.0609242,13.1260614 15.1288241,13.2580144 15.0893173,13.3812799 C15.0878721,13.3857891 15.0862906,13.3902535 15.0845749,13.394667 L14.6734336,14.4284538 C14.6259906,14.5452137 14.4947068,14.6035509 14.3762541,14.5605084 L14.1961695,14.4896004 L13.8895086,14.3705269 C13.7994753,14.3350745 13.7216288,14.3038607 13.6559694,14.2768856 C13.0660018,14.0345075 12.5249561,13.7846667 12.032832,13.5273633 C11.4179039,13.2058527 10.863824,12.8597438 10.3705922,12.4890368 C10.2692176,12.4128449 10.1704135,12.3356139 10.0741797,12.2573438 C9.5172526,12.7089063 8.87753906,13.1284831 8.15503906,13.5160742 C7.70956373,13.7550532 7.21522278,13.9675071 6.68677455,14.1993332 C6.53023674,14.2680051 6.31083941,14.36441 6.02858256,14.4885478 L5.85186985,14.5667831 C5.74207012,14.6144953 5.61396144,14.571788 5.5547553,14.4677348 L4.99748727,13.4943823 C4.93351232,13.3818551 4.9728717,13.2387718 5.0853989,13.1747969 C5.09696712,13.16822 5.10907445,13.1626403 5.12158963,13.1581183 C5.48583319,13.0280315 5.76167798,12.9264937 5.94898838,12.8531295 C7.22189936,12.3545658 8.24323917,11.8210617 9.01300781,11.2526172 C8.53886719,10.7182682 8.12681641,10.1218294 7.77685547,9.46330078 C7.42689453,8.80477214 7.1314974,8.06533854 6.89066406,7.245 L5.55675781,7.245 C5.47046332,7.245 5.40050781,7.17504449 5.40050781,7.08875 L5.40050781,6.03527344 C5.40050781,5.94897895 5.47046332,5.87902344 5.55675781,5.87902344 L9.34039063,5.87902344 L9.2275,5.32585938 C9.191766,5.14718938 9.16092623,4.98621392 9.1349807,4.84293299 L9.11040693,4.70559233 C9.09659628,4.62041014 9.15445435,4.54016059 9.23963654,4.52634994 L9.25113728,4.52492072 L10.4354077,4.52433895 Z M11.6433594,7.245 L8.36953125,7.245 C8.72325521,8.50184896 9.27641927,9.53291667 10.0290234,10.3382031 C10.7665755,9.54044271 11.3046875,8.509375 11.6433594,7.245 Z M5.68675595,1.40625 C6.08227237,1.40625 6.40290179,1.72687941 6.40290179,2.12239583 C6.40290179,2.48966108 6.12644071,2.79235539 5.77027369,2.83372363 L5.68675595,2.83854167 L3.64289848,2.83854167 C3.22899617,2.83854167 2.88702735,3.15442119 2.84327107,3.5616044 L2.83854167,3.65017361 L2.83854167,5.703125 C2.83854167,6.09864142 2.51791226,6.41927083 2.12239583,6.41927083 C1.75513058,6.41927083 1.45243628,6.14280976 1.41106804,5.78664273 L1.40625,5.703125 L1.40625,3.65017361 C1.40625,2.45435966 2.3390463,1.47586526 3.51590404,1.40980479 L3.64289848,1.40625 L5.68675595,1.40625 Z M16.3571015,1.40625 L16.484096,1.40980479 C17.6609537,1.47586526 18.59375,2.45435966 18.59375,3.65017361 L18.59375,5.703125 L18.588932,5.78664273 C18.5475637,6.14280976 18.2448694,6.41927083 17.8776042,6.41927083 C17.4820877,6.41927083 17.1614583,6.09864142 17.1614583,5.703125 L17.1614583,3.65017361 L17.1567289,3.5616044 C17.1129727,3.15442119 16.7710038,2.83854167 16.3571015,2.83854167 L14.313244,2.83854167 L14.2297263,2.83372363 C13.8735593,2.79235539 13.5970982,2.48966108 13.5970982,2.12239583 C13.5970982,1.72687941 13.9177276,1.40625 14.313244,1.40625 L16.3571015,1.40625 Z" id="形状结合"></path>
                </g>
            </g>
        </g>
    </g>
</svg>